# xmcd
#
# Track frame offsets:
#	150
#	17981
#	31203
#	49419
#	64266
#	78448
#	92708
#	105562
#	120761
#	135606
#	157809
#
# Disc length: 2454 seconds
#
# Revision: 0
# Processed by: cddbd v1.5.1PL2 Copyright (c) Steve Scherf et al.
# Submitted via: dBpowerAMP V4.0
#
DISCID=8309940b
DTITLE=Ady Ferguson - Seasons Change
DYEAR=2005
DGENRE=Easy Listening
TTITLE0=Getting Better
TTITLE1=Come And Go
TTITLE2=Sometimes
TTITLE3=Let You Go
TTITLE4=Give It A Chance
TTITLE5=5th Season
TTITLE6=Shine
TTITLE7=For You
TTITLE8=Where Do We Go?
TTITLE9=Talk About It
TTITLE10=Season Change
EXTD=
EXTT0=
EXTT1=
EXTT2=
EXTT3=
EXTT4=
EXTT5=
EXTT6=
EXTT7=
EXTT8=
EXTT9=
EXTT10=
PLAYORDER=
